<svg width="122" height="148" viewBox="0 0 122 148" fill="none" xmlns="http://www.w3.org/2000/svg">
<g clip-path="url(#clip0_62_160)">
<path fill-rule="evenodd" clip-rule="evenodd" d="M75.5699 80.3297L57.2077 81.8393C57.2077 81.8393 59.4836 133.94 55.8219 142.529C55.5806 143.095 54.2128 143.143 53.9597 143.661L82.8237 144.057C81.625 143.682 80.5999 143.355 80.0737 143.133C77.5535 142.069 76.8285 140.214 75.9162 136.792C74.2206 130.431 75.5697 80.3297 75.5697 80.3297H75.5699Z" fill="#5B3700" stroke="#2F1A00" stroke-width="1.8277"/>
<path d="M63.8149 113.005C63.8149 113.005 62.5636 116.165 61.3898 116.024C60.2159 115.883 60.1758 113.893 60.1772 113.005C60.1785 112.117 60.7625 110.781 61.2165 110.438C61.6705 110.095 62.0827 110.287 62.0827 110.287" stroke="#2F1A00" stroke-width="1.8277"/>
<path d="M61.4105 114.213C61.4105 114.213 63.1092 112.788 63.0335 112.238C62.9579 111.687 62.391 111.31 61.9311 111.41C61.4713 111.511 61.107 112.577 61.3187 112.798C61.5303 113.02 61.7044 112.854 61.8086 112.718C61.9129 112.582 61.6555 112.078 61.6555 112.078" stroke="#2F1A00" stroke-width="1.8277"/>
<path d="M70.4492 107.383C70.4513 106.706 70.4513 106.029 70.4513 105.352C70.4554 104.66 70.4464 103.967 70.4464 103.274C70.4542 102.79 70.454 102.306 70.454 101.822C70.454 101.795 70.6411 101.695 70.6411 101.722C70.6412 102.204 70.6408 102.685 70.6487 103.166C70.6484 103.861 70.6392 104.555 70.6439 105.25C70.644 105.926 70.6436 106.602 70.6459 107.278C70.646 107.307 70.4494 107.412 70.4495 107.383H70.4492Z" fill="#2A2322" fill-opacity="0.66355"/>
<path d="M73.5673 107.625C73.4736 108.336 73.3835 109.046 73.3259 109.759C73.2521 110.866 73.2446 111.974 73.2373 113.081C73.2331 114.061 73.2352 115.041 73.2366 116.02L73.2387 118.206C73.2311 118.766 73.2324 119.325 73.288 119.884C73.3446 120.509 73.4855 121.128 73.5058 121.755C73.5204 122.128 73.4717 122.493 73.3573 122.855C73.3463 122.894 73.3352 122.933 73.324 122.972C73.3178 122.995 73.1187 123.078 73.1252 123.055C73.1363 123.016 73.1473 122.977 73.1584 122.938C73.2737 122.576 73.3283 122.213 73.3133 121.84C73.2959 121.213 73.1535 120.594 73.096 119.969C73.0397 119.41 73.0372 118.851 73.0465 118.29C73.0469 117.561 73.0469 116.832 73.0464 116.104C73.0462 115.123 73.0459 114.143 73.0506 113.163C73.058 112.055 73.0644 110.947 73.1364 109.841C73.1922 109.129 73.2818 108.419 73.3697 107.709C73.3725 107.686 73.5702 107.602 73.5671 107.625H73.5673Z" fill="#2A2322" fill-opacity="0.66355"/>
<path d="M68.1973 129.364C68.0827 130.558 67.8918 131.734 67.6969 132.906C67.4692 134.202 67.2496 135.501 67.0311 136.801C66.9402 137.372 66.8374 137.939 66.714 138.498C66.652 138.725 66.6827 138.613 66.6222 138.833C66.6149 138.859 66.4907 138.957 66.498 138.931C66.5586 138.712 66.5277 138.823 66.5906 138.597C66.715 138.038 66.8199 137.47 66.9113 136.899C67.1326 135.599 67.3526 134.298 67.5806 133.001C67.7745 131.832 67.965 130.659 68.0751 129.467C68.0779 129.439 68.2 129.336 68.1973 129.364Z" fill="#2A2322" fill-opacity="0.66355"/>
<path d="M61.9818 125.379C61.998 126.361 61.904 127.341 61.8239 128.32C61.7238 129.612 61.5941 130.901 61.5199 132.193C61.4706 133.133 61.4621 134.074 61.458 135.014C59.9116 138.988 60.4422 139.383 61.2662 135.117C61.271 134.175 61.2808 133.234 61.3304 132.293C61.4059 131 61.5369 129.711 61.636 128.419C61.7147 127.442 61.8085 126.464 61.7854 125.484C61.7848 125.455 61.9814 125.35 61.9819 125.379H61.9818Z" fill="#2A2322" fill-opacity="0.66355"/>
<path d="M62.5362 100.197C62.6478 101.306 62.7556 102.416 62.8568 103.525C62.9794 104.868 63.1329 106.207 63.362 107.539C63.4644 108.111 63.5897 108.679 63.7152 109.247C63.7214 109.274 63.5599 109.407 63.554 109.38C63.4288 108.812 63.3038 108.243 63.2012 107.671C62.9723 106.338 62.8197 104.998 62.6961 103.655C62.5948 102.547 62.4874 101.44 62.3677 100.334C62.3649 100.305 62.5334 100.169 62.5362 100.197Z" fill="#2A2322" fill-opacity="0.66355"/>
<path d="M58.545 121.333C58.5394 122.322 58.5519 123.312 58.52 124.301C58.4122 125.514 58.4677 126.724 58.5703 127.935C58.5834 128.082 58.5966 128.23 58.6098 128.378C58.6125 128.405 58.4219 128.509 58.4195 128.481C58.4068 128.333 58.3941 128.185 58.3813 128.037C58.2808 126.825 58.2241 125.615 58.3321 124.401C58.3637 123.413 58.3508 122.426 58.3486 121.438C58.3485 121.409 58.5452 121.304 58.545 121.333H58.545Z" fill="#2A2322" fill-opacity="0.66355"/>
<path d="M65.4879 109.98C65.4401 110.65 65.3853 111.32 65.3265 111.989C65.2686 112.461 65.2811 112.941 65.2292 113.413C65.1786 113.721 65.1426 114.031 65.1239 114.344C65.1545 114.833 65.3414 115.295 65.4994 115.744C65.7148 116.267 65.8776 116.81 65.9726 117.378C66.0396 117.75 66.0356 118.06 65.9365 118.42C65.8397 118.755 65.7205 119.081 65.6103 119.411C65.4584 119.879 65.352 120.363 65.2574 120.851C65.1331 121.427 65.0209 122.005 64.9142 122.586C64.7976 123.086 64.7045 123.592 64.5873 124.091C64.5077 124.408 64.4763 124.734 64.461 125.062C64.4596 125.112 64.4583 125.162 64.4569 125.212C64.4562 125.241 64.3073 125.345 64.3081 125.317C64.3095 125.267 64.3109 125.216 64.3123 125.166C64.3271 124.837 64.3575 124.509 64.4374 124.191C64.5553 123.692 64.6493 123.186 64.7662 122.686C64.8729 122.105 64.9841 121.526 65.1089 120.951C65.2027 120.462 65.3087 119.978 65.4595 119.508C65.5694 119.179 65.6877 118.853 65.7857 118.519C65.8862 118.161 65.8939 117.857 65.8271 117.485C65.7341 116.918 65.5727 116.375 65.3571 115.853C65.1976 115.402 65.0095 114.939 64.975 114.448C64.9932 114.135 65.0282 113.824 65.0801 113.516C65.1351 113.044 65.1203 112.562 65.1801 112.09C65.2393 111.421 65.295 110.753 65.3385 110.083C65.3405 110.054 65.4901 109.952 65.4881 109.98H65.4879Z" fill="#2A2322" fill-opacity="0.66355"/>
<path d="M59.037 115.898C59.0105 116.464 59.2232 117.004 59.5572 117.482C59.8243 117.875 60.1787 118.205 60.5433 118.529C60.7901 118.777 61.0147 119.036 61.1576 119.341C61.2709 119.629 61.2828 119.935 61.2917 120.236C61.2965 120.538 61.2931 120.841 61.2913 121.143C61.2597 121.42 61.3382 121.686 61.3926 121.956C61.3982 121.984 61.2036 122.092 61.198 122.064C61.1437 121.793 61.063 121.526 61.0949 121.248C61.0963 120.946 61.0997 120.644 61.0956 120.341C61.0873 120.042 61.0768 119.739 60.966 119.452C60.8254 119.149 60.6017 118.893 60.3574 118.646C59.9923 118.321 59.6375 117.989 59.3699 117.594C59.0342 117.114 58.8187 116.572 58.8408 116.003C58.8422 115.974 59.0382 115.87 59.0369 115.898H59.037Z" fill="#2A2322" fill-opacity="0.66355"/>
<path d="M70.8234 114.751C70.7511 116.123 70.7344 117.498 70.7173 118.872C70.6954 121.093 70.6948 123.314 70.6932 125.534C70.6912 127.553 70.6815 129.572 70.7302 131.59C70.7728 133.223 70.9428 134.844 71.2311 136.438C71.49 137.761 71.9318 139.013 72.299 140.293C72.5028 140.978 72.6466 141.684 72.7844 142.392C72.8032 142.478 72.8219 142.564 72.8407 142.65C72.8462 142.675 72.7225 142.773 72.7171 142.748C72.6983 142.662 72.6116 142.413 72.6607 142.49C74.1206 144.763 72.3935 141.098 72.1794 140.39C71.7797 139.125 71.3721 137.858 71.1012 136.54C70.8122 134.945 70.6416 133.323 70.5995 131.689C70.5527 129.669 70.5634 127.649 70.5659 125.629C70.5673 123.409 70.568 121.189 70.5876 118.969C70.6033 117.597 70.6185 116.225 70.6836 114.855C70.685 114.827 70.8249 114.722 70.8234 114.751V114.751Z" fill="#2A2322" fill-opacity="0.66355"/>
<path fill-rule="evenodd" clip-rule="evenodd" d="M10.4257 89.1463C13.9252 79.7832 18.9707 82.6154 14.9828 81.6021C0.860559 77.0474 -1.9298 61.8898 1.91587 48.5043C4.77642 39.6328 21.113 31.4316 22.1794 31.3289C21.9585 30.5047 21.8817 28.9988 21.8504 28.6808C20.9725 19.7604 25.2429 9.79344 39.6215 3.05238C54.0001 -3.68867 80.8831 2.69394 83.7365 15.0822C95.4738 14.2467 116.305 21.6909 120.802 35.0559C125.393 48.7016 110.044 60.2749 110.313 62.679C110.598 65.2342 123.362 76.5282 111.704 92.2011C100.148 107.738 84.8544 101.627 77.3842 94.5992C64.7142 106.932 13.8447 110.616 10.4259 89.146L10.4257 89.1463Z" fill="#256603" stroke="#0C3D26" stroke-width="1.8277"/>
<path d="M78.4801 37.3942C104.494 37.8558 88.1878 74.7427 72.6361 65.5493" stroke="#0C3D26" stroke-width="1.8277"/>
<path d="M22.165 31.2951C25.3655 43.6443 39.3022 45.9686 45.6631 39.9673" stroke="#0C3D26" stroke-width="1.8277"/>
<path fill-rule="evenodd" clip-rule="evenodd" d="M37.1132 77.6122C25.3171 83.2017 25.148 98.0957 41.5987 98.7249C38.4347 110.012 59.0699 118.075 66.9088 99.8327C89.477 124.575 111.054 92.2908 92.2001 80.1934" fill="#256603"/>
<path d="M37.1132 77.6122C25.3171 83.2017 25.148 98.0957 41.5987 98.7249C38.4347 110.012 59.0699 118.075 66.9088 99.8327C89.477 124.575 111.054 92.2908 92.2001 80.1934" stroke="#0C3D26" stroke-width="1.8277"/>
<path d="M56.7503 139.026C56.4565 139.4 56.0122 140.119 55.8769 140.196C49.3474 143.912 49.1505 144.069 49.7072 144.257C52.4141 144.64 54.7542 144.33 54.4231 143.723C54.3739 144.399 54.2269 145.076 54.4843 145.752C57.6019 145.653 60.6474 145.513 62.3239 144.577C61.6485 145.082 69.2145 148.336 70.4082 147.566C71.1183 147.109 71.878 145.858 71.878 145.858C74.2057 145.966 76.692 146.627 78.8598 146.179C79.8906 145.979 77.9155 144.171 78.0024 144.364C78.2828 144.985 83.8837 144.941 84.77 143.884C84.9448 143.932 79.3871 142.237 78.0024 141.375C77.5187 141.131 77.5812 141.074 77.3899 140.894" stroke="#2F1A00" stroke-width="1.82626" stroke-linecap="round"/>
<path fill-rule="evenodd" clip-rule="evenodd" d="M75.8332 139.63C75.2175 139.715 75.4485 141.075 74.9065 141.145C71.3139 141.607 68.7452 141.645 59.2945 140.051C59.1565 140.028 57.1136 137.871 57.1133 138.002C57.112 138.768 56.9483 139.663 56.1878 140.213C50.7752 143.135 49.8649 143.85 49.865 144.06C52.5719 144.444 55.0345 144.16 54.7034 143.553C54.689 143.926 54.3394 144.66 54.5503 145.742C57.388 145.351 60.6009 145.385 62.3899 144.567C62.0313 144.934 69.617 148.18 70.4741 147.556C71.1525 147.063 71.944 145.608 71.944 145.608C74.2716 145.932 76.7579 146.662 78.9258 146.169C79.9566 145.969 77.9009 144.207 78.0684 144.354C79.0531 145.215 84.8377 144.958 84.7135 143.767C81.428 143.094 79.1468 142.414 77.7622 141.552C77.3397 141.148 75.9017 139.943 75.833 139.63H75.8332Z" fill="#5B3700"/>
</g>
<defs>
<clipPath id="clip0_62_160">
<rect width="122" height="148" fill="white"/>
</clipPath>
</defs>
</svg>
