<svg width="433" height="527" viewBox="0 0 433 527" fill="none" xmlns="http://www.w3.org/2000/svg">
<path fill-rule="evenodd" clip-rule="evenodd" d="M268.211 286.039L203.041 291.414C203.041 291.414 211.118 476.934 198.122 507.518C197.266 509.533 192.411 509.705 191.513 511.55L293.956 512.961C289.702 511.625 286.064 510.459 284.196 509.668C275.251 505.88 272.678 499.277 269.44 487.09C263.422 464.439 268.211 286.039 268.211 286.039H268.211Z" fill="#5B3700" stroke="#2F1A00" stroke-width="1.8277"/>
<path d="M226.49 402.388C226.49 402.388 222.049 413.642 217.883 413.14C213.717 412.638 213.575 405.551 213.579 402.388C213.584 399.226 215.657 394.472 217.268 393.25C218.879 392.028 220.342 392.712 220.342 392.712" stroke="#2F1A00" stroke-width="1.8277"/>
<path d="M217.956 406.689C217.956 406.689 223.985 401.618 223.717 399.657C223.448 397.697 221.436 396.352 219.804 396.711C218.172 397.07 216.879 400.864 217.63 401.653C218.381 402.441 218.999 401.851 219.369 401.368C219.739 400.885 218.826 399.087 218.826 399.087" stroke="#2F1A00" stroke-width="1.8277"/>
<path d="M250.037 382.372C250.045 379.961 250.045 377.55 250.045 375.139C250.059 372.673 250.027 370.206 250.027 367.74C250.055 366.016 250.054 364.293 250.054 362.569C250.054 362.472 250.718 362.117 250.719 362.213C250.719 363.927 250.717 365.642 250.745 367.356C250.744 369.828 250.712 372.301 250.728 374.774C250.729 377.182 250.727 379.59 250.735 381.998C250.736 382.099 250.038 382.473 250.038 382.372H250.037Z" fill="#2A2322" fill-opacity="0.66355"/>
<path d="M261.104 383.232C260.772 385.763 260.452 388.293 260.248 390.832C259.985 394.772 259.959 398.717 259.933 402.661C259.918 406.149 259.926 409.638 259.931 413.127L259.938 420.908C259.911 422.903 259.916 424.893 260.113 426.883C260.314 429.11 260.814 431.315 260.886 433.548C260.938 434.875 260.765 436.174 260.359 437.465C260.32 437.602 260.28 437.741 260.241 437.879C260.219 437.96 259.512 438.256 259.535 438.175C259.575 438.037 259.614 437.898 259.653 437.759C260.062 436.47 260.256 435.176 260.203 433.849C260.141 431.616 259.636 429.413 259.432 427.187C259.232 425.195 259.223 423.204 259.256 421.207C259.257 418.612 259.257 416.018 259.256 413.423C259.255 409.932 259.254 406.441 259.27 402.951C259.297 399.007 259.32 395.063 259.575 391.122C259.773 388.587 260.091 386.061 260.403 383.532C260.413 383.45 261.115 383.149 261.104 383.232H261.104Z" fill="#2A2322" fill-opacity="0.66355"/>
<path d="M242.045 460.642C241.638 464.892 240.961 469.078 240.269 473.252C239.461 477.869 238.681 482.494 237.906 487.122C237.583 489.154 237.219 491.175 236.78 493.164C236.561 493.973 236.669 493.576 236.455 494.357C236.429 494.451 235.988 494.8 236.014 494.706C236.229 493.926 236.119 494.322 236.342 493.518C236.784 491.527 237.156 489.505 237.481 487.47C238.266 482.842 239.047 478.211 239.856 473.59C240.544 469.427 241.22 465.251 241.611 461.008C241.621 460.907 242.054 460.542 242.045 460.642Z" fill="#2A2322" fill-opacity="0.66355"/>
<path d="M219.985 446.45C220.043 449.949 219.709 453.438 219.425 456.925C219.07 461.523 218.609 466.113 218.346 470.716C218.171 474.062 218.141 477.411 218.126 480.76C212.638 494.908 214.521 496.316 217.445 481.125C217.463 477.773 217.497 474.42 217.673 471.072C217.941 466.467 218.406 461.876 218.758 457.277C219.037 453.798 219.37 450.314 219.288 446.824C219.286 446.723 219.984 446.349 219.986 446.45H219.985Z" fill="#2A2322" fill-opacity="0.66355"/>
<path d="M221.953 356.783C222.349 360.732 222.731 364.682 223.091 368.634C223.526 373.416 224.071 378.184 224.884 382.928C225.247 384.963 225.692 386.986 226.137 389.009C226.159 389.104 225.586 389.578 225.565 389.483C225.121 387.458 224.677 385.433 224.313 383.396C223.5 378.65 222.959 373.879 222.52 369.096C222.161 365.151 221.779 361.209 221.355 357.269C221.345 357.168 221.943 356.683 221.953 356.783Z" fill="#2A2322" fill-opacity="0.66355"/>
<path d="M207.787 432.043C207.767 435.567 207.812 439.09 207.698 442.613C207.316 446.932 207.513 451.24 207.877 455.551C207.924 456.077 207.97 456.602 208.017 457.128C208.027 457.227 207.35 457.595 207.342 457.496C207.297 456.97 207.252 456.443 207.206 455.916C206.849 451.601 206.648 447.29 207.032 442.968C207.144 439.451 207.098 435.934 207.09 432.417C207.09 432.316 207.788 431.942 207.787 432.043H207.787Z" fill="#2A2322" fill-opacity="0.66355"/>
<path d="M232.429 391.618C232.259 394.005 232.064 396.388 231.856 398.771C231.65 400.452 231.695 402.162 231.51 403.843C231.331 404.94 231.203 406.044 231.137 407.158C231.245 408.897 231.909 410.543 232.469 412.142C233.234 414.003 233.812 415.938 234.149 417.96C234.387 419.286 234.372 420.39 234.021 421.671C233.677 422.864 233.254 424.025 232.863 425.198C232.324 426.868 231.946 428.589 231.611 430.326C231.169 432.377 230.771 434.438 230.392 436.506C229.979 438.285 229.648 440.087 229.232 441.865C228.95 442.992 228.838 444.155 228.784 445.322C228.779 445.501 228.774 445.679 228.769 445.857C228.767 445.958 228.238 446.33 228.241 446.229C228.246 446.05 228.251 445.871 228.256 445.692C228.309 444.52 228.417 443.352 228.7 442.22C229.119 440.442 229.452 438.641 229.867 436.861C230.246 434.794 230.64 432.733 231.083 430.682C231.416 428.943 231.792 427.219 232.328 425.547C232.718 424.375 233.138 423.214 233.485 422.025C233.842 420.75 233.87 419.667 233.632 418.343C233.302 416.323 232.73 414.389 231.964 412.532C231.398 410.924 230.731 409.274 230.608 407.527C230.673 406.412 230.797 405.306 230.981 404.208C231.176 402.527 231.124 400.813 231.336 399.131C231.546 396.75 231.744 394.37 231.898 391.984C231.906 391.883 232.436 391.517 232.429 391.618H232.429Z" fill="#2A2322" fill-opacity="0.66355"/>
<path d="M209.533 412.691C209.439 414.707 210.194 416.628 211.379 418.33C212.327 419.729 213.585 420.907 214.879 422.058C215.755 422.943 216.552 423.863 217.059 424.951C217.461 425.976 217.504 427.065 217.535 428.138C217.552 429.214 217.54 430.291 217.534 431.367C217.422 432.354 217.7 433.301 217.894 434.263C217.913 434.362 217.223 434.748 217.203 434.648C217.01 433.682 216.724 432.731 216.837 431.74C216.842 430.664 216.854 429.589 216.839 428.513C216.81 427.448 216.773 426.367 216.379 425.347C215.88 424.266 215.087 423.356 214.219 422.476C212.923 421.319 211.664 420.135 210.714 418.731C209.523 417.021 208.758 415.09 208.837 413.064C208.841 412.963 209.537 412.59 209.533 412.691H209.533Z" fill="#2A2322" fill-opacity="0.66355"/>
<path d="M251.365 408.605C251.109 413.491 251.049 418.388 250.989 423.282C250.911 431.189 250.909 439.096 250.903 447.004C250.896 454.193 250.862 461.381 251.034 468.567C251.186 474.383 251.789 480.153 252.812 485.83C253.731 490.542 255.299 495 256.602 499.558C257.326 501.997 257.836 504.51 258.325 507.03C258.392 507.337 258.458 507.644 258.525 507.95C258.544 508.038 258.105 508.387 258.086 508.299C258.02 507.992 257.712 507.105 257.886 507.378C263.068 515.473 256.938 502.422 256.178 499.903C254.759 495.398 253.313 490.886 252.351 486.194C251.326 480.513 250.72 474.739 250.571 468.918C250.404 461.727 250.443 454.535 250.451 447.342C250.456 439.436 250.459 431.531 250.528 423.626C250.584 418.742 250.638 413.855 250.869 408.978C250.874 408.876 251.371 408.504 251.365 408.605V408.605Z" fill="#2A2322" fill-opacity="0.66355"/>
<path fill-rule="evenodd" clip-rule="evenodd" d="M37.0024 317.433C49.4227 284.093 67.3301 294.178 53.1765 290.57C3.05408 274.351 -6.84941 220.378 6.79956 172.715C16.9522 141.125 74.9337 111.922 78.7186 111.556C77.9344 108.622 77.6618 103.259 77.5507 102.127C74.4351 70.3629 89.5916 34.8726 140.624 10.869C191.656 -13.1346 287.069 9.59264 297.196 53.7048C338.853 50.7299 412.787 77.2374 428.747 124.827C445.043 173.417 390.567 214.628 391.521 223.188C392.534 232.287 437.834 272.502 396.458 328.311C355.442 383.633 301.164 361.875 274.65 336.85C229.682 380.763 49.1373 393.884 37.0032 317.432L37.0024 317.433Z" fill="#C4C4C4" stroke="#0C3D26" stroke-width="1.8277"/>
<path d="M278.54 133.154C370.869 134.798 312.995 266.145 257.799 233.409" stroke="#0C3D26" stroke-width="1.8277"/>
<path d="M78.667 111.436C90.0261 155.409 139.49 163.686 162.066 142.316" stroke="#0C3D26" stroke-width="1.8277"/>
<path fill-rule="evenodd" clip-rule="evenodd" d="M131.722 276.363C89.8551 296.266 89.255 349.3 147.642 351.541C136.412 391.732 209.65 420.442 237.471 355.485C317.57 443.589 394.152 328.63 327.235 285.553" fill="#C4C4C4"/>
<path d="M131.722 276.363C89.8551 296.266 89.255 349.3 147.642 351.541C136.412 391.732 209.65 420.442 237.471 355.485C317.57 443.589 394.152 328.63 327.235 285.553" stroke="#0C3D26" stroke-width="1.8277"/>
<path d="M201.417 495.046C200.374 496.376 198.797 498.937 198.317 499.211C175.143 512.442 174.444 513.004 176.419 513.672C186.027 515.037 194.332 513.931 193.157 511.772C192.982 514.179 192.461 516.586 193.374 518.994C204.439 518.644 215.248 518.144 221.199 514.812C218.801 516.609 245.654 528.197 249.891 525.456C252.411 523.826 255.108 519.374 255.108 519.374C263.369 519.758 272.193 522.112 279.887 520.514C283.546 519.803 276.536 513.367 276.844 514.052C277.84 516.264 297.718 516.108 300.864 512.342C301.484 512.514 281.759 506.48 276.844 503.409C275.128 502.542 275.35 502.338 274.671 501.698" stroke="#2F1A00" stroke-width="1.82626" stroke-linecap="round"/>
<path fill-rule="evenodd" clip-rule="evenodd" d="M269.145 497.197C266.96 497.499 267.78 502.343 265.856 502.591C253.106 504.235 243.989 504.37 210.447 498.694C209.957 498.613 202.706 490.931 202.705 491.4C202.7 494.127 202.12 497.314 199.42 499.271C180.21 509.676 176.979 512.221 176.979 512.972C186.587 514.336 195.327 513.326 194.152 511.166C194.101 512.493 192.86 515.108 193.608 518.959C203.68 517.566 215.083 517.69 221.433 514.777C220.16 516.082 247.083 527.64 250.125 525.421C252.533 523.665 255.342 518.484 255.342 518.484C263.603 519.637 272.427 522.236 280.121 520.479C283.78 519.768 276.484 513.496 277.078 514.017C280.573 517.084 301.104 516.168 300.663 511.926C289.002 509.532 280.906 507.11 275.992 504.039C274.492 502.602 269.388 498.311 269.144 497.197H269.145Z" fill="#5B3700"/>
</svg>
